# xmcd
#
# Track frame offsets:
#	150
#	16000
#	31575
#	42275
#	61050
#	72400
#	82500
#	97025
#	106700
#	121100
#	129200
#
# Disc length: 1969 seconds
#
# Revision: 1
# Processed by: cddbd v1.5.1PL2 Copyright (c) Steve Scherf et al.
# Submitted via: audiograbber 1.82.02
#
DISCID=7007af0b
DTITLE=Diana Murrell - Merry Christmas
DYEAR=1900
DGENRE=Country
TTITLE0=Hark The Harald Angels
TTITLE1=I'll Be Home For Christmas
TTITLE2=Winter Wonderland
TTITLE3=Tennessee Christmas
TTITLE4=Silver Bells
TTITLE5=Santa Claus Is Coming To Town
TTITLE6=Merry Christmas Darling
TTITLE7=The Christmas Song
TTITLE8=O Holy Night
TTITLE9=Jingle Bells
TTITLE10=Silent Night
EXTD=
EXTT0=
EXTT1=
EXTT2=
EXTT3=
EXTT4=
EXTT5=
EXTT6=
EXTT7=
EXTT8=
EXTT9=
EXTT10=
PLAYORDER=
